<svg version="1.1" id="Layer_1" xmlns="http://www.w3.org/2000/svg" x="0" y="0" viewBox="0 0 320.2 96.5" style="enable-background:new 0 0 320.2 96.5" xml:space="preserve"><style>.st0{opacity:.8;fill-rule:evenodd;clip-rule:evenodd;fill:#fff}</style><path class="st0" d="M198.6 75.5c-18.6 13.7-45.6 21-68.8 21-31 .1-61-11.3-84-32.1-1.8-1.5-.2-3.7 1.9-2.5 25.6 14.6 54.6 22.3 84.1 22.3 22-.1 43.8-4.6 64.1-13.1 3.2-1.3 5.8 2.1 2.7 4.4z"/><path class="st0" d="M206.4 66.6c-2.4-3-15.7-1.4-21.7-.7-1.8.2-2.1-1.4-.5-2.5 10.6-7.5 28.1-5.3 30.1-2.8s-.5 20-10.5 28.4c-1.5 1.3-3 .6-2.3-1.1 2.2-5.7 7.3-18.2 4.9-21.3zm-21.3-56.1V3.3c0-1 .8-1.8 1.8-1.8h32.7c1 0 1.8.7 1.9 1.7v6.3c0 1-.9 2.4-2.5 4.6l-16.8 24.1c6.3-.2 12.9.8 18.6 4 1 .6 1.7 1.7 1.7 2.8v7.8c0 1.1-1.2 2.3-2.4 1.7-10.8-5.6-23.6-5.5-34.4.1-1.1.6-2.3-.6-2.3-1.7v-7.4c-.1-1.8.3-3.5 1.2-5l19.5-28h-17c-1 .1-1.9-.7-1.9-1.7-.1-.1-.1-.2-.1-.3zM66.3 55.9h-9.9c-.9 0-1.7-.8-1.8-1.7V3.4c0-1 .9-1.9 1.9-1.8h9.2c.9 0 1.7.8 1.8 1.7v6.6h.2c2.4-6.4 6.9-9.4 13-9.4s10.1 3 12.9 9.4c2.9-7.6 11.4-11.3 18.9-8.4 2.5.9 4.6 2.5 6.3 4.6 3.1 4.3 2.5 10.5 2.5 16v32.1c0 1-.9 1.8-1.9 1.8h-9.9c-1 0-1.8-.8-1.8-1.8v-27c0-2.1.2-7.5-.3-9.5-.7-3.4-3-4.4-5.8-4.4-2.6.1-5 1.7-5.9 4.2-1 2.6-.9 6.8-.9 9.7v27c0 1-.9 1.9-1.9 1.8H83c-1 0-1.8-.8-1.8-1.8v-27c0-5.7.9-14-6.1-14s-6.8 8.1-6.8 14v27c-.2.9-1 1.7-2 1.7zM249.4.5c14.7 0 22.7 12.6 22.7 28.7 0 15.5-8.8 27.8-22.7 27.8-14.4 0-22.3-12.6-22.3-28.4S235.1.5 249.4.5zm.1 10.4c-7.3 0-7.8 10-7.8 16.2s-.1 19.5 7.7 19.5 8-10.7 8-17.2c0-4.3-.2-9.4-1.5-13.5-1-3.6-3.2-5-6.4-5zm41.7 45h-9.9c-1 0-1.8-.8-1.8-1.8V3.2c.1-1 .9-1.7 1.9-1.7h9.2c.8 0 1.6.6 1.8 1.4v7.8h.2c2.8-7 6.7-10.3 13.5-10.3 4.4 0 8.8 1.6 11.6 6 2.6 4.1 2.6 10.9 2.6 15.8v32c-.1.9-1 1.6-1.9 1.6h-9.9c-.9 0-1.6-.7-1.8-1.6V26.7c0-5.6.6-13.7-6.2-13.7-2.5.1-4.8 1.7-5.7 4.1-1.4 3.1-1.6 6.2-1.6 9.6v27.4c-.1 1-1 1.8-2 1.8zM159.1 31.6c0 3.9.1 7.1-1.9 10.5-1.6 2.8-4.1 4.5-6.9 4.5-3.8 0-6-2.9-6-7.2 0-8.4 7.6-10 14.7-10l.1 2.2zm10 24.2c-.6.6-1.6.7-2.3.2-3.3-2.7-3.9-4-5.7-6.6-5.4 5.5-9.3 7.2-16.3 7.2-8.3 0-14.8-5.2-14.8-15.4-.2-7.1 4-13.6 10.6-16.2 5.4-2.4 12.9-2.8 18.6-3.4v-1.3c0-2.4.2-5.2-1.2-7.2-1.3-1.7-3.4-2.7-5.6-2.6-3.8 0-7.1 1.9-8 6-.1.9-.8 1.7-1.7 1.8l-9.6-1c-1-.1-1.6-1-1.5-2v-.1C133.8 3.5 144.3 0 153.8 0c4.8 0 11.1 1.3 14.9 4.9 4.8 4.5 4.4 10.5 4.4 17.1v15.4c0 4.7 1.9 6.7 3.7 9.2.6.9.8 2 0 2.6-2.1 1.7-5.7 4.9-7.7 6.6zM29.2 31.6c0 3.9.1 7.1-1.8 10.5-1.6 2.8-4.1 4.5-6.9 4.5-3.8 0-6-2.9-6-7.2 0-8.4 7.6-10 14.7-10v2.2zm10 24.2c-.6.6-1.6.7-2.3.2-3.3-2.7-3.9-4-5.7-6.6-5.4 5.5-9.3 7.2-16.3 7.2C6.5 56.6 0 51.5 0 41.2-.2 34.1 4 27.6 10.6 25c5.4-2.4 12.9-2.8 18.6-3.4v-1.3c0-2.4.2-5.2-1.2-7.2-1.3-1.7-3.4-2.7-5.6-2.6-3.8 0-7.1 1.9-8 6-.1.9-.8 1.7-1.7 1.8l-9.6-1c-1-.1-1.6-1-1.5-2v-.1C3.9 3.5 14.4 0 23.8 0c4.9 0 11.2 1.3 15 4.9 4.8 4.5 4.3 10.5 4.3 17.1v15.4c0 4.7 1.9 6.7 3.7 9.2.6.9.8 2 0 2.6-2 1.7-5.6 4.9-7.6 6.6z"/></svg>