<svg version="1.1" id="Layer_1" xmlns="http://www.w3.org/2000/svg" x="0" y="0" viewBox="0 0 1186.8 197" style="enable-background:new 0 0 1186.8 197" xml:space="preserve"><style>.st1{fill:#fff}</style><g style="opacity:.8"><path class="st1" d="M292.9 128.6h-6.7c-9 0-12.6-1.9-12.6-9.5V50.5c0-7.7 1.6-8.6 11.4-9.7v-4.5h-41.3v4.5c9.8 1.1 11.4 1.9 11.4 9.7v69.3c0 7.7-1.6 8.6-11.4 9.7v4.5h73.7l4.9-29.4h-4.4c-9.4 17-14 24-25 24zm92.5-5.5V81.3c0-15.8-9.4-22.4-26.6-22.4-15 0-26.8 6.6-26.8 19.3 0 2.4.2 3.3.8 5h16.6c-.5-2-.7-5-.7-7.5 0-9.6 3.6-12.4 9.4-12.4 6.4 0 9.7 2 9.7 14.4v11.2L347 96.6c-10.6 4.1-19.3 8.8-19.3 20.7 0 10.9 7.5 17.8 18.6 17.8 9.9 0 17.4-6.2 21.9-12.1l.1-.1V134h26v-4.4c-6.7-.5-8.9-1.4-8.9-6.5zm-17.5-3.3c-4.4 3.3-7.6 5.3-12 5.4-7.7 0-11.2-5.2-11.2-12.6 0-7.7 3.6-11.2 9.8-13.5l13.4-5.4v26.1zm146.4 3.2V81.5c0-14.8-6-22.4-18.7-22.4-11.5 0-19.4 6.6-25.5 13.9-1.8-9.6-7.7-13.9-17.8-13.9-11.4 0-18.7 6.2-24.8 13.6V59h-2.3l-23.8 7.4v2.4l8.6 5v49.4c0 5-2.1 6.1-8.9 6.4v4.4h35.1v-4.4c-6.7-.3-8.7-1.3-8.7-6.4v-47c4.7-3.6 9.5-6.5 15.5-6.5 7.6 0 10.5 4.2 10.5 12.7v40.8c0 5-1.9 6.1-8.7 6.4v4.4h34.8v-4.4c-6.7-.3-8.6-1.3-8.6-6.4v-47c4.7-3.6 9.5-6.5 15.5-6.5 7.6 0 10.5 4.2 10.5 12.7l-.1 40.5c0 5-1.8 6.4-8.6 6.7v4.4h35.1v-4.4c-6.8-.2-9.1-1.5-9.1-6.6zM573 59.3c-11 0-18.5 5.7-23.4 12.8V25h-2.7l-23.4 6.8v2.5l8.6 4.5V134h2.9l8-3.5c5.8 3.3 12.3 5 20.2 5 20.8 0 37.4-15.8 37.4-42.6.1-21-10.4-33.6-27.6-33.6zm-9.8 71.4c-5.4 0-10.3-2.4-13.7-7.9V75.6c3.4-3.4 8.5-5.7 13.5-5.7 13.9 0 20 12.8 20 29.5.1 17.3-7.4 31.1-19.8 31.3zm113.6-7.5V24.9h-2.6l-23.4 6.8v2.4l8.6 4.5v25.7c-3.4-3.2-8.8-5.1-15.5-5.1-19.9 0-35.2 15.3-35.2 41.3 0 20.7 11.2 34.6 28.1 34.6 9.8 0 17-5.3 22.6-13.1v12h26.3v-4.4c-6.8-.3-8.9-1.3-8.9-6.4zm-17.4-4.1c-3.4 3.4-8 5.1-13.2 5.1-13.2 0-20.4-12.8-20.4-29.8 0-17.8 7.3-29.2 19.5-29.2 8.7 0 14.1 6.9 14.1 18.3v35.6zm87.4 4V81.3c0-15.8-9.4-22.4-26.6-22.4-15 0-26.8 6.6-26.8 19.3 0 2.4.2 3.3.8 5h16.6c-.5-2-.7-5-.7-7.5 0-9.6 3.6-12.4 9.4-12.4 6.4 0 9.7 2 9.7 14.4v11.2l-20.8 7.7c-10.6 4.1-19.3 8.8-19.3 20.7 0 10.9 7.5 17.8 18.6 17.8 9.9 0 17.4-6.2 21.9-12.1v-.1h.1V134l26 .1v-4.5c-6.7-.5-8.9-1.4-8.9-6.5zm-17.4-3.3c-4.4 3.3-7.6 5.3-12.1 5.4-7.7 0-11.2-5.2-11.2-12.6 0-7.7 3.6-11.2 9.8-13.5l13.4-5.4.1 26.1z"/><path d="M0 0v90.4c0 65.7 50.9 88.5 88.1 105.2h.1l3 1.4c.7-.4 1.4-.7 2.2-1 .4-.2.9-.4 1.3-.6 37.3-16.6 88.4-39.5 88.4-105V0H0zm116 132-2-5.3-26.6-70c-1.6 4.1-5.3 14-9.3 24.6l-15.3 41.3c-.7 2-.3 3 .2 3.7 1.1 1.3 3.5 1.3 7.3 1.3h.7v4.4H42.4v-4.4h2.2c3.9 0 7.1-1.7 9.5-6.5l2.9-6.6 26.5-67.8-4.7-12.5h24.7l34.1 89.7 3.1 8.1H116z" style="fill-rule:evenodd;clip-rule:evenodd;fill:#fff"/><path class="st1" d="M795.6 134.5V106h4.9c3.2 17.5 6.2 20.7 24.2 22 12.3.9 21-7.3 21-17.5 0-11.1-6.5-12.4-24.2-19.4-15.3-6-26.1-12.7-26.1-29.1 0-15.7 11.9-27.3 30.8-27.3 11.3 0 21.6 3.1 28.6 8.1v20.9h-4.6c-2.2-15.5-10.5-24-24-24-10.5 0-16.8 6.6-16.8 15.8 0 10.4 5 14.4 20.4 20.4 18.9 7.6 29.6 14.7 29.6 31.2 0 18.5-10.4 27.3-28.9 27.3-12.8.1-24.8.1-34.9.1zm107.3-10.4c9.1 0 15.4-4.1 20-11.1l2.1 1c-4.3 14.1-14 21.7-27.5 21.7-18.5 0-31.5-14.1-31.5-35.6 0-23.3 13.6-40.6 35-40.6 13.3 0 22 5.6 22 15.4 0 4.1-2.1 7.4-4.9 9h-9.2c.3-1.8.6-3.8.6-6.3 0-7-2.4-13.3-10.9-13.3-11.6 0-18.6 12.6-18.6 28.9-.1 18.4 8.6 30.9 22.9 30.9zM935 38.4l-8.8-4.8v-2.1l22.3-6.9h2.2V73c6.3-7.1 14.4-13.4 25.6-13.4 13 0 19.5 7.7 19.5 23v41.2c0 5.2 2.2 6.2 9.2 6.6v4.1h-34.2v-4.1c7-.4 9.2-1.4 9.2-6.6v-41c0-9.4-3.8-13.6-11.8-13.6-6.6 0-12.7 3.4-17.6 7.3v47.2c0 5.2 2.1 6.2 9.1 6.6v4.1h-34v-4.1c7-.4 9.2-1.4 9.2-6.6l.1-85.3zm72 60.9c0-24 15.1-39.8 34.7-39.8 20.4 0 34 14.7 34 36.3 0 24.1-15.1 39.9-34.7 39.9-20.5 0-34-14.5-34-36.4zm52.2.7c0-19.6-5.6-35.9-18.2-35.9-11.5 0-17.4 12.5-17.4 31.1 0 19.5 5.6 35.9 18.1 35.9 11.5 0 17.5-12.5 17.5-31.1zm22.1-.7c0-24 15.1-39.8 34.7-39.8 20.4 0 34 14.7 34 36.3 0 24.1-15.1 39.9-34.7 39.9-20.4 0-34-14.5-34-36.4zm52.3.7c0-19.6-5.6-35.9-18.2-35.9-11.5 0-17.4 12.5-17.4 31.1 0 19.5 5.6 35.9 18.1 35.9 11.4 0 17.5-12.5 17.5-31.1zm43.9 23.7c0 5.2 2.2 6.2 9.2 6.6v4.1h-34.2v-4.1c7-.4 9.2-1.4 9.2-6.6V38.4l-8.8-4.8v-2.1l22.1-6.9h2.4v99.1h.1z"/></g></svg>