<svg width="900" height="220" fill="none" xmlns="http://www.w3.org/2000/svg"><g opacity=".8" fill="#fff"><path opacity=".8" d="M886.5 205.404s.1 0 0 0c2.2 0 4.1-1.8 4.1-4v-.2c0-3-1.8-4.5-5.6-4.5h-6v15.8h2.3v-6.9h2.8l.1.1 4.3 6.8h2.4l-4.7-7.1h.3Zm-2.6-1.6h-2.6v-5.4h3.4c1.7 0 3.7.3 3.7 2.5-.1 2.7-2.1 2.9-4.5 2.9ZM.1 32.204h33.5v122.3h62.2v31H0v-153.3h.1Zm110.6 49.4H143v103.9h-32.3v-103.9Zm16.1-51.7c10.3 0 18.7 8.5 18.7 18.7 0 10.3-8.4 18.7-18.7 18.7-10.3 0-18.7-8.4-18.7-18.7 0-10.3 8.4-18.7 18.7-18.7Zm151.1 2.3h32.3v91.6l36.6-42.3h39.6l-42.4 48.1 41.5 55.9h-40.6l-34.3-51.4h-.4v51.4h-32.3v-153.3Zm-117.1 49.4h31v14.2h.4c6.3-10.8 18.1-17.3 30.6-16.8 32.7 0 38.7 21.5 38.7 49.5v57h-32.3v-50.5c0-12.1-.2-27.6-16.8-27.6-16.8 0-19.4 13.1-19.4 26.7v51.4h-32.3l.1-103.9Z"/><path opacity=".8" d="M454.3 121.404v-.5c0-10.6-8.7-19.3-19.3-19.3h-.5c-11.7-.7-21.9 8.2-22.8 19.8h42.6Zm27.3 46.1c-10.9 13.2-27.1 20.8-44.1 20.7-32.3 0-58.1-21.5-58.1-54.9s25.8-54.9 58.1-54.9c30.2 0 49.1 21.5 49.1 54.9v10.1h-74.9c1.9 11.8 12.4 20.5 24.3 20.2 9.3-.1 18-4.8 23-12.7l22.6 16.6Zm72.2-60.8c-16.1 0-25.8 10.8-25.8 26.5s9.7 26.5 25.8 26.5 25.8-10.8 25.8-26.5c0-15.8-9.6-26.5-25.8-26.5Zm55.5 78.7h-29.7v-13.8h-.4c-7.5 10.2-19.4 16.2-32.1 16.4-31 0-51.4-22.4-51.4-54 0-29.1 18.1-55.7 47.8-55.7 13.4 0 25.8 3.7 33.1 13.8h.4v-59.9h32.3v153.2Zm217.9.1h-32.3v-50.5c0-12-.2-27.6-16.8-27.6-16.8 0-19.4 13.1-19.4 26.7v51.4h-32.3v-103.9h31v14.2h.4c6.3-10.8 18.1-17.2 30.6-16.8 32.7 0 38.7 21.5 38.7 49.5l.1 57Zm-137.1-118.1c-10.3 0-18.7-8.5-18.7-18.7s8.5-18.7 18.7-18.7c10.3 0 18.7 8.5 18.7 18.7s-8.5 18.7-18.7 18.7Zm16.1 118.1h-32.3v-103.9h32.3v103.9ZM843.3.004H657.7c-8.7-.1-16 7-16.1 15.7v186.3c.1 8.7 7.4 15.8 16.1 15.7h185.6c8.7.1 16-7 16.1-15.7v-186.3c-.1-8.8-7.4-15.9-16.1-15.7Zm40.9 189.6c-8.1.1-14.7 6.8-14.7 14.8 0 8.1 6.7 14.8 14.8 14.8 8.2 0 14.9-6.7 14.9-14.8 0-8.1-6.6-14.8-14.7-14.8h-.3Zm0 28h-.2c-7.1 0-13-5.9-13-13s5.9-13 13-13 12.9 5.7 13 12.8v.2c.1 7-5.5 12.9-12.5 13h-.3Z"/></g></svg>