<svg width="115" height="33" fill="none" xmlns="http://www.w3.org/2000/svg"><path opacity=".74" d="M112.915 18.7c-.7-.7-1.8-1.1-3.3-1.1-1.7 0-2.8.7-3.6 1.3-.4.3-.7.5-1 .5h-.1c-.2 0-.3-.1-.4-.2-.2-.3-.1-.9.1-1.5 0-.1.1-.3.2-.6.6-1.8 2.2-7.1 2.2-9.2 0-1.2-.2-2-.8-2.5-.6-.6-1.6-.9-3-.9-.6 0-1 .2-1.3.5-.9.9-.8 2.8-.7 4.1v.8c0 3.4-.9 5.7-1.7 8l-.1.4-.1.2c-.1.1-.7.6-1.4 1.1-1.1.9-1.5 1-1.6 1v-.4c0-.2.1-.4.1-.6v-.2c0-.7-.1-1.1-.3-1.4-.3-.4-.7-.5-1.3-.5-1.8 0-2.7 1.4-3.2 2-.1.1-.2.2-.3.4-.4.6-.5.8-.9.8-.1 0-.3-.1-.3-.2-.2-.2-.2-.4 0-1.1 0-.2.1-.3.1-.5.1-.6.2-.9.1-1-.2-.3-1-.4-2.4-.4-1.2 0-2.1.4-2.7 1.2-.5.7-.6 1.6-.6 2 0 1.2-.6 3.6-1 5.8l-.1.2c-.9.9-3.3 3-5.8 3-1.6 0-2.7-.8-3.3-1.4-.7-.8-1-1.7-1-2.2v-.4c.1-.2.3-.4.5-.4h.8c.1 0 2-.1 3.8-1 2-.9 3-2.4 3-4.2 0-1.1-.3-1.8-.8-2.3-.7-.6-1.8-.9-3.4-.9-4.2 0-7.5 1.9-8.8 5.1l-.2.5-.4-.4c-1.5-1.3-2.1-2.8-2.3-3.3-.1-.6-.3-1-.7-1.3-.3-.3-.8-.4-1.4-.4-.1 0-.7 0-1.3.3-.8.4-1.2 1-1.2 1.9 0 .4.4.8.8 1.2.5.5 1 1 .8 1.6-.4 1.1-1.3 3.4-2.1 4.5-1.1 1.5-2.3 2.2-3.6 2.2h-.1c-.7 0-1-.3-1.2-.6-.4-.5-.5-1.4-.3-2.6.2-1.2.6-2.7 1-4 .3-.8.5-1.5.5-1.9 0-.3.1-.5.1-.7.2-.7.2-1.2.1-1.4-.2-.2-.8-.3-1.7-.3-2.7 0-3.7 2.9-3.9 3.5-.1.5-.3.9-.4 1.4-.4 1.3-.8 2.6-1 4.1v.1l-.1.1c-.1.1-3 3.3-6 3.3-1.3 0-2.4-.3-3.1-.9-.7-.5-.9-1.2-1.1-1.6-.1-.2-.1-.3 0-.4.5-.2 3.5-1.4 5.1-2.5 1.8-1.2 3-2.3 3-4.2 0-1.1-.3-1.8-.8-2.3-.7-.6-1.8-.9-3.4-.9-2.6 0-5 .8-6.7 2.2-1.8 1.6-2.8 3.8-2.8 6.5v1.2c-.1.1-.3.3-.8.4-.5.2-1.3.4-2.4.4-1.2 0-2.3-.8-3.3-2.5-.8-1.4-1.4-3.1-1.6-4-.6-2.1-1.4-3-2-3.5l-.2-.2c-.3-.3-.6-.6-.4-.8.1-.1.5-.3 1-.5 1.3-.5 3.4-1.4 5.3-2.9 2.2-1.8 3.4-4.1 3.4-6.6 0-1.4-.3-2.5-1-3.5-.7-.9-1.7-1.7-3-2.2-2.2-.8-4.7-1-6.6-1-1.6 0-7 .1-12.2 1.8C3.715 4.4.315 8 .015 13c-.1 1.5.3 2.7 1.1 3.6.8.9 2 1.3 3.6 1.3 1.7 0 3.4-.7 4.6-1.9.8-.8 1.1-1.6 1.2-2.2v-.2l-.2.1c-.5.1-.9.2-1.3.2-.9 0-1.6-.4-1.9-1.1-.3-.6-.4-1.4-.4-1.8 0-2 1.4-4.2 3.7-5.9 2.2-1.7 5-2.6 7.4-2.7-.4.6-1.5 2.3-2 3.8-.7 2-6 20-6.9 23.9-.3 1.4-.1 1.9 0 2.1.1-.1.2 0 .6 0h2.4c1.2 0 2.1-.1 2.6-.3.4-.2.5-.3.5-.4.1-1.5.4-3.6.9-5.6.2-1.1.7-2.7 1.1-4.2.4-1.4.8-2.8.9-3.5.1-.7.7-.8.9-.8.5 0 1 .4 1.3.7.7.9 1.4 2.4 1.3 4.9-.1 2 0 5.5 1.8 7.5.9.9 2.1 1.4 3.6 1.4h.1c2 0 4-.8 5.3-1.5 1.2-.6 2.1-1.2 2.4-1.6.4 1 1.9 3.3 6.6 3.3 1.8 0 3.6-.4 5.5-1.3 1.5-.7 2.5-1.5 3.1-1.9.1-.1.2-.2.3-.2.1.1.1.3.1.5s-.1 1.1.6 1.8c.6.6 1.6 1 2.9 1 2.3 0 4.9-.9 7.1-2.4 2.3-1.7 4-4 4.7-6.5l.2-.7.5.5c.5.5 1.1.9 1.8 1.3l.3.1v.3c-.1.5-.1 1-.1 1.5 0 .1 0 1.5.3 2.5 0 0 .2.9 1.2 1.8.6.5 1.2.9 2 1.2 1 .4 2.1.5 3.4.5 3.9 0 6.4-1.8 7.6-2.9l.9-.9-.3 1.2c-.1.3-.3 1.3-.3 1.6 0 .3 0 .5.1.6v.1h4.3c.3 0 .4 0 .5-.1.1-.1.2-.3.2-.5.3-5.9 2.4-8.7 3.2-9.7.2-.3.4-.5.7-.5.2 0 .4.1.4.4.1.3.7 1.3 1.8 1.4h.1c.2 0 .5 0 .8-.1.8-.3 1.5-.7 2.3-1.3.2-.1.3-.3.5-.4l1-1-.3 1.4c-.4 1.5-.6 2.9-.6 4.5 0 2.1.6 3.6 1.7 4.7 1.1 1 2.7 1.5 4.7 1.5.3 0 2.7 0 5.1-1.3 3.1-1.7 4.7-4.6 4.7-8.8-.2-1.4-.6-2.5-1.3-3.3Zm-4.4 5.7c-.4 1.7-1.1 3.3-1.9 4.6-.4.7-.8 1.2-1.2 1.5-.4.4-.8.6-1.2.6-.7 0-1.2-.6-1.5-1.6-.3-1.1-.2-2.6.1-4.3.4-1.6 1-3.2 1.7-4.1.6-.9 1.4-1.3 2.1-1.4h.3c.4 0 1 .1 1.5.7.6.8.6 2.1.1 4Zm-34.7-2.2.1-.2c.6-1.2 1.6-3.3 3.5-3.4h.2c.4 0 .8.1 1 .4.3.2.4.6.4 1.2 0 .9-.9 2.1-1.7 2.9-1.1 1.1-2.3 1.7-3.3 1.7-.2 0-.4-.1-.5-.3-.4-.5-.1-1.5.3-2.3Zm-30.3-3.6h.2c.4 0 .8.1 1 .4.3.3.5.7.5 1.2 0 .9-.9 2.1-1.7 2.9-1.1 1.1-3.1 2.3-4.2 2.4 0-.1 0-.3-.1-.4-.2-.8.4-2.5.7-3l.1-.2c.7-1.1 1.6-3.1 3.5-3.3Zm-20.2-16.5c.1 0 .1-.1.1-.1.1-.1.2-.1.3-.1.4 0 1.5.4 2.4 1.4.6.7 1.3 1.9 1.1 3.7-.2 1.9-.7 3.6-1.4 4.9-.6 1.1-1.4 2-2.3 2.7-1.6 1.2-3.4 1.3-4.2 1.3h-.5c-.2 0-.3-.1-.4-.2-.2-.3-.1-.8.4-2.2.1-.2.1-.4.2-.7 2-6.6 3.4-9.7 3.6-10 .2-.4.5-.6.7-.7Z" fill="#fff"/></svg>